<?xml version="1.0" encoding="UTF-8" standalone="no"?>
<svg
   xmlns="http://www.w3.org/2000/svg"
   width="300px"
   height="300px"
   viewBox="0 0 1068 1068"
   id="svg2"
   version="1.1">
  <path
     id="path4136"
     d="m 483.91211,0 c -14.83013,0 -26.76953,11.93744 -26.76953,26.76758 l 0,80.50781 a 434.28571,434.28571 0 0 0 -64.01562,16.80078 L 352.28321,53.333984 C 344.86814,40.490709 328.55812,36.120087 315.71485,43.535156 l -92.19727,53.232422 c -12.84327,7.415072 -17.21389,23.723132 -9.79883,36.566402 l 40.09375,69.44336 a 434.28571,434.28571 0 0 0 -46.8164,46.8711 l -70.80469,-40.87891 c -12.84328,-7.41507 -29.15329,-3.04445 -36.568359,9.79883 L 46.39258,310.76758 c -7.41507,12.84327 -3.04444,29.15134 9.79883,36.5664 l 69.76953,40.28125 a 434.28571,434.28571 0 0 0 -17.61133,63.8125 l -81.58203,0 C 11.93745,451.42773 0,463.36713 0,478.19726 L 0,584.6582 c 0,14.83014 11.93745,26.76953 26.76758,26.76953 l 80.50781,0 a 434.28571,434.28571 0 0 0 16.80079,64.01563 l -70.74219,40.84375 c -12.84328,7.41507 -17.2139,23.72508 -9.79883,36.56836 l 53.232422,92.19726 c 7.415068,12.84328 23.723128,17.2139 36.566408,9.79883 l 69.44336,-40.09375 a 434.28571,434.28571 0 0 0 46.87109,46.81641 l -40.87891,70.80469 c -7.41506,12.84327 -3.04444,29.15329 9.79883,36.56835 l 92.19922,53.23044 c 12.84328,7.4151 29.15134,3.0445 36.56641,-9.7988 l 40.28125,-69.76953 a 434.28571,434.28571 0 0 0 63.8125,17.61133 l 0,81.582 c 0,14.8302 11.93939,26.7676 26.76953,26.7676 l 106.46094,0 c 14.83013,0 26.76953,-11.9374 26.76953,-26.7676 l 0,-80.50778 a 434.28571,434.28571 0 0 0 64.01562,-16.80078 l 40.84375,70.74216 c 7.41507,12.8433 23.72313,17.2139 36.56641,9.7989 l 92.19922,-53.23247 c 12.84327,-7.41506 17.21389,-23.72313 9.79883,-36.5664 l -40.09375,-69.44336 a 434.28571,434.28571 0 0 0 46.8164,-46.8711 l 70.80469,40.87891 c 12.84327,7.41507 29.15329,3.04445 36.56836,-9.79883 l 53.23043,-92.19922 c 7.4151,-12.84327 3.0445,-29.15133 -9.7988,-36.5664 l -69.76952,-40.28125 a 434.28571,434.28571 0 0 0 17.61133,-63.8125 l 81.58199,0 c 14.8302,0 26.7676,-11.9394 26.7676,-26.76953 l 0,-106.46094 c 0,-14.83014 -11.9374,-26.76953 -26.7676,-26.76953 l -80.50777,0 a 434.28571,434.28571 0 0 0 -16.80079,-64.01563 l 70.74216,-40.84375 c 12.8433,-7.41507 17.2139,-23.72313 9.7989,-36.5664 l -53.23246,-92.19922 c -7.41507,-12.84328 -23.72313,-17.2139 -36.56641,-9.79883 l -69.44336,40.09375 a 434.28571,434.28571 0 0 0 -46.87109,-46.81641 l 40.8789,-70.80468 c 7.41507,-12.84328 3.04445,-29.1533 -9.79882,-36.568364 L 757.80274,46.392578 c -12.84328,-7.415069 -29.15134,-3.044447 -36.56641,9.798828 l -40.28125,69.769534 a 434.28571,434.28571 0 0 0 -63.8125,-17.61133 l 0,-81.58203 C 617.14258,11.93744 605.20319,0 590.37305,0 L 483.91211,0 Z m 50.37305,240 A 294.28571,294.28571 0 0 1 828.57032,534.28516 294.28571,294.28571 0 0 1 534.28516,828.57031 294.28571,294.28571 0 0 1 240,534.28516 294.28571,294.28571 0 0 1 534.28516,240 Z"
     style="fill:#000000;stroke:none">
     	<animateTransform attributeName="transform"
                          attributeType="XML"
                          type="rotate"
                          from="0 534 534"
                          to="360 534 534"
                          dur="3s"
                          repeatCount="indefinite"/>
	</path>
</svg>
