<?xml version="1.0" encoding="UTF-8" standalone="no"?>
<svg
   xmlns:dc="http://purl.org/dc/elements/1.1/"
   xmlns:cc="http://creativecommons.org/ns#"
   xmlns:rdf="http://www.w3.org/1999/02/22-rdf-syntax-ns#"
   xmlns:svg="http://www.w3.org/2000/svg"
   xmlns="http://www.w3.org/2000/svg"
   width="176.49922mm"
   height="176.49928mm"
   viewBox="0 0 625.39095 625.39117"
   id="svg2"
   version="1.1">
  <defs
     id="defs4" />
  <metadata
     id="metadata7">
    <rdf:RDF>
      <cc:Work
         rdf:about="">
        <dc:format>image/svg+xml</dc:format>
        <dc:type
           rdf:resource="http://purl.org/dc/dcmitype/StillImage" />
        <dc:title></dc:title>
      </cc:Work>
    </rdf:RDF>
  </metadata>
  <g
     transform="translate(-221.58969,-221.58948)"
     id="g4177">
    <circle
       style="fill:#ffffff;fill-opacity:1;stroke:none;stroke-opacity:1"
       id="path4146"
       cx="534.28516"
       cy="534.28516"
       r="312.69547" />
    <path
       style="fill:#000000;fill-opacity:1;stroke:none;stroke-opacity:1"
       id="path4146-6"
       d="M 534.30671,221.58948 A 312.69547,312.69547 0 0 1 846.98062,534.2742 312.69547,312.69547 0 0 1 534.3282,846.9804 l -0.043,-312.69546 z" />
  </g>
  <g
     transform="translate(-78.002111,-91.14653)"
     id="g4190">
    <path
       style="fill:#ffffff"
       d="m 407.51994,632.98188 c 5.7436,-1.489 6.4782,-3.3797 5.7118,-14.7002 -0.729,-10.7671 -2.4471,-16.7144 -7.0834,-24.5183 -3.803,-6.4014 -6.2472,-12.4695 -4.7821,-11.8721 0.4001,0.1631 3.0154,3.0041 5.8118,6.3133 2.7963,3.3092 5.5177,6.1607 6.0474,6.3367 0.5297,0.176 1.4423,-0.9495 2.0279,-2.5011 1.1398,-3.0197 3.1027,-3.8273 3.1027,-1.2766 0,0.8494 -0.874,3.9412 -1.9421,6.8708 -1.8479,5.0681 -1.88219,5.84601 -0.7032,16.0338 l 1.2391,10.7072 2.7955,0.3177 c 4.8379,0.5496 9.6828,-1.483 11.457,-4.8068 2.3902,-4.4777 2.8703,-22.1679 0.756,-27.8546 -0.8626,-2.3203 -1.8065,-5.2333 -2.0974,-6.4733 -0.5434,-2.3159 0.1842,-2.4213 4.4545,-0.6456 1.1253,0.468 1.7995,-0.8513 3.1794,-6.2217 1.3975,-5.4389 2.4933,-7.5594 5.4248,-10.4976 4.511,-4.5214 5.0555,-5.5321 5.8452,-10.8493 0.7222,-4.8637 3.2451,-11.25 4.4442,-11.25 0.45,0 1.9649,1.8984 3.3664,4.2188 2.8407,4.7029 3.8407,5.0743 6.3119,2.3437 0.9332,-1.0312 1.9873,-1.875 2.3423,-1.875 0.355,0 0.069,3.4805 -0.6365,7.7344 -1.1604,7.0014 -1.1145,8.6228 0.4853,17.1093 1.6359,8.6782 1.8466,9.1789 2.8349,6.7359 0.5873,-1.4516 1.0677,-4.9837 1.0677,-7.8492 0,-4.4366 0.2011,-5.0431 1.3547,-4.0857 0.745,0.6183 2.3243,0.9864 3.5095,0.8179 2.5604,-0.364 3.2998,-2.9821 3.4624,-12.2595 0.106,-6.0478 0.2119,-6.3281 2.3915,-6.3281 2.7965,0 3.732,-2.4311 2.8789,-7.4809 -0.6034,-3.5715 -4.0996,-8.4566 -6.0522,-8.4566 -0.5742,0 -1.0047,2.4345 -1.0363,5.8594 -0.076,8.2282 -1.1133,13.2877 -2.7909,13.6107 -2.5489,0.4909 -4.7659,-2.0911 -5.3159,-6.1912 -0.4562,-3.4012 -0.1825,-4.3774 1.8302,-6.5296 1.3016,-1.3918 3.0584,-3.9016 3.9039,-5.5774 0.8455,-1.6758 2.1518,-3.0469 2.9029,-3.0469 0.7718,0 2.76557,-2.93932 4.5853,-6.7598 l 3.2197,-6.7597 -4.6454,-5.3623 c -2.55491,-2.9492 -6.0986,-6.6382 -7.8747,-8.1976 -4.1414,-3.6362 -13.7752,-6.6217 -23.6579,-7.3315 -6.5146,-0.4679 -8.022,-0.3013 -9.5173,1.0519 -2.1444,1.9407 -13.1291,5.7632 -19.161,6.6677 -2.3993,0.3598 -4.3618,0.5008 -4.3611,0.3134 7e-4,-0.1875 0.6329,-3.9268 1.405,-8.3096 2.4603,-13.96762 1.654,-19.5754 -3.8522,-26.78881 -1.819,-2.38311 -3.1614,-4.47893 -2.9829,-4.65739 0.1785,-0.17844 3.2659,2.03989 6.861,4.92964 3.5951,2.88975 8.8569,6.34477 11.6928,7.67782 5.1288,2.41082 5.2861,2.42381 29.5313,2.43876 26.1228,0.0161 28.7492,0.359 39.375,5.14059 11.7576,5.29099 21.4074,15.62509 26.3472,28.21579 1.4423,3.6763 3.2404,6.9213 3.9957,7.2112 2.3572,0.9045 11.2042,-4.4972 18.4533,-11.2671 12.7214,-11.8803 22.2465,-26.91687 25.7646,-40.67228 2.1283,-8.32182 2.35245,-23.02067 0.5846,-38.31641 l -1.0829,-9.36946 -9.8438,-0.006 c -8.353,-0.005 -10.4299,-0.31907 -13.7139,-2.07573 -6.4774,-3.46474 -14.4724,-13.86192 -14.3769,-18.6965 0.019,-0.95333 1.0933,0.45516 2.3877,3.12996 2.364,4.88533 7.8261,10.60547 10.127,10.60547 0.9654,0 1.0586,-1.07017 0.4286,-4.92188 -1.3165,-8.04999 -0.9516,-44.05873 0.6299,-62.14714 2.2601,-25.85023 3.9878,-37.24902 7.0366,-46.42572 3.2942,-9.91527 3.405,-12.80596 0.8924,-23.28726 -4.0456,-16.87583 -9.7781,-24.94144 -35.7136,-50.24925 -21.7841,-21.2569 -36.1139,-33.60427 -48.5397,-41.82467 -11.5336,-7.63014 -26.8155,-15.31218 -33.3768,-16.77822 -6.1724,-1.37912 -28.0017,-4.39596 -37.6485,-5.20307 l -8.14823,-0.68535 0.28832,143.36213 c 0.30482,151.5638 -0.50879,151.36167 3.75271,158.25695 1.0493,1.69785 3.8558,4.60465 6.2367,6.45956 13.1558,10.24963 13.3766,18.4887 0.9402,35.08427 -8.0065,10.6843 -9.4248,13.45552 -10.6905,24.00502 -1.0317,8.5988 -0.5653,90.48003 -0.5653,98.62203 l 0.5974,1.26425 4.3373,0.3464 c 2.3856,0.1905 4.9702,0.4143 5.7436,0.4973 0.7734,0.083 3.491,-0.3896 6.0389,-1.0502 z m 79.7924,-164.74899 c -1.5193,-0.45382 -7.8475,-1.27084 -14.0625,-1.81561 -26.0904,-2.28687 -35.3534,-4.53926 -42.3104,-10.28818 -3.1465,-2.6001 -6.0383,-4.04483 -9.5591,-4.77576 -2.7764,-0.57638 -5.2872,-0.80874 -5.5796,-0.51636 -0.2924,0.29238 0.6164,2.26638 2.0196,4.38668 1.4031,2.12029 2.3506,4.05567 2.1054,4.30083 -1.0071,1.00711 -10.5592,-4.83049 -14.7318,-9.00315 -4.2261,-4.22606 -9.0536,-11.89893 -8.0917,-12.86087 0.2418,-0.24173 2.1104,0.0104 4.1526,0.5603 13.6753,3.6824 40.8688,-13.28436 55.4978,-34.62658 8.9635,-13.07702 11.9985,-22.3199 12.8632,-39.17434 0.3249,-6.33495 0.9437,-11.73613 1.3749,-12.00263 1.1388,-0.70381 24.185,17.46157 27.6269,21.77601 7.4557,9.34543 8.9076,16.18738 6.5617,30.91908 -2.7351,17.17514 -1.80828,25.18153 4.3441,37.52945 l 3.8073,7.64131 -2.5953,4.42863 c -3.30685,5.64281 -8.5306,11.43412 -11.8718,13.16193 -2.8736,1.486 -7.3165,1.62418 -11.5513,0.35926 z m -43.8199,144.90349 c 1.0092,-1.283 2.124,-4.2607 2.4774,-6.6171 0.3871,-2.5815 1.2292,-4.5095 2.1187,-4.8508 2.1024,-0.8068 4.192,2.4344 3.5256,5.4687 -0.4051,1.8443 0.072,3.1796 1.8501,5.1745 2.3627,2.6513 2.4161,2.6627 3.8414,0.8137 3.2574,-4.2254 4.4729,-11.723 4.5598,-28.125 0.082,-15.5143 0.012,-16.1182 -2.6466,-22.7464 -1.502,-3.7449 -3.257,-7.2455 -3.8999,-7.779 -2.5134,-2.0859 -5.7198,5.8519 -7.9755,19.7442 -1.015,6.2511 -1.2388,6.7452 -2.0177,4.4531 -1.0818,-3.1839 -1.9446,-3.2412 -3.8986,-0.2589 -3.8968,5.9472 -5.6414,23.4823 -3.2723,32.8906 1.1867,4.713 2.6709,5.2225 5.3376,1.8324 z"
       id="path4272" />
    <path
       style="fill:#333333"
       d="m 390.68879,632.0009 -1.09137,2.09827 -2.7824,1.4389 c -5.6242,2.9084 -10.8472,1.2468 -13.7548,-4.3759 l -1.4936,-2.8883 -2.0381,3.6333 c -3.9689,7.0757 -11.4576,6.4147 -14.8759,-1.313 l -1.8471,-4.1756 -2.0325,3.6235 c -1.1179,1.9929 -3.1238,4.0072 -4.4576,4.4763 -4.746,1.669 -8.1072,-0.4726 -11.5909,-7.3853 -0.2599,-0.5156 -0.7512,-0.3047 -1.0919,0.4688 -1.4785,3.3566 -6.742,7.5 -9.5274,7.5 -3.4197,0 -7.8929,-3.522 -9.5479,-7.5173 l -1.1878,-2.8678 -1.7172,2.8236 c -1.758,2.8909 -5.3234,4.4493 -7.9093,3.457 -1.9094,-0.7327 -4.1838,-6.2915 -4.1579,-10.1623 l 0.021,-3.077 1.7059,3.75 c 0.9382,2.0625 2.4457,4.3624 3.3501,5.1109 1.4384,1.1906 1.9558,1.1866 4.1329,-0.032 3.0869,-1.7272 4.7105,-6.2467 4.7795,-13.304 l 0.053,-5.4122 -2.373,1.5549 c -2.8029,1.8365 -2.7496,1.8762 -3.9157,-2.9179 l -0.9121,-3.75 -1.136,4.032 c -0.9944,3.529 -1.3932,3.9544 -3.1965,3.4102 -3.1685,-0.9561 -3.37,-1.3863 -4.0436,-8.6346 l -0.6298,-6.7764 -6.132,0 c -3.3726,0 -8.5373,-0.6749 -11.4771,-1.4998 -5.2394,-1.4701 -5.4849,-1.4515 -12.4065,0.9375 -9.81547,3.3879 -17.47087,3.3346 -24.17587,-0.1681 -8.8664,-4.6319 -11.0734,-11.9246 -11.2698,-37.2383 -0.1517,-19.5639 -0.3695,-20.546 -4.6364,-20.905 -1.8759,-0.1579 -5.3048,0.5676 -7.8604,1.6631 -4.3711,1.8736 -4.6206,1.8836 -6.981,0.28 -2.1041,-1.4295 -4.6868,-1.6654 -18.3854,-1.6791 -18.316,-0.018 -21.0665,-0.7524 -32.8125,-8.7554 -9.0513,-6.167 -16.3066,-15.1348 -22.4277,-27.7213 -6.1895,-12.72741 -8.0411,-18.81489 -8.0411,-26.43716 0,-7.18296 5.8914,-42.69231 7.8353,-47.22644 0.7738,-1.80469 4.1519,-7.66802 7.5069,-13.02964 3.4475,-5.50949 6.5886,-11.78537 7.2238,-14.43294 1.4256,-5.94258 5.1397,-9.59189 16.3388,-16.05387 l 8.43,-4.86416 0.6779,-4.63782 c 1.532,-10.4811 1.2686,-15.20141 -0.9819,-17.59699 -7.8797,-8.38755 -9.111,-38.43491 -1.7718,-43.23795 3.2744,-2.1429 9.5654,-2.77697 14.3264,-1.44397 7.7273,2.1635 12.5681,7.68339 20.5393,23.42065 4.0964,8.08739 7.0628,15.11814 7.0628,16.73982 0,4.22057 0.9046,5.76187 3.3816,5.76187 1.9865,0 2.2434,-0.42285 2.2434,-3.69254 0,-2.0309 -1.0333,-9.73012 -2.2962,-17.10938 -3.1902,-18.64101 -3.7012,-26.11594 -2.4726,-36.17114 1.3641,-11.16453 4.7797,-22.00995 10.1789,-32.32071 5.0977,-9.73497 15.9243,-24.47242 18.3068,-24.91963 1.2227,-0.22952 2.0873,0.70616 3.1484,3.40742 1.2475,3.17588 1.9651,3.80506 4.8768,4.27594 4.44807,0.71935 9.73587,4.37946 12.28437,8.50297 1.2806,2.07211 2.8601,7.85109 4.2766,15.64749 1.3275,7.30624 3.212,14.33603 4.6077,17.18885 3.4909,7.1352 11.983,16.04463 18.3625,19.26501 3.422,1.7274 6.1275,3.89888 7.3773,5.92116 1.0855,1.75639 4.4759,6.43142 7.5342,10.38898 3.0584,3.95756 5.6952,7.56317 5.8598,8.01247 0.1645,0.44929 4.096,1.10896 8.7367,1.46592 l 8.4375,0.64903 1.1422,-3.04956 c 0.6283,-1.67725 0.9232,-3.40406 0.6555,-3.83734 -0.2678,-0.4333 -2.7764,-1.45338 -5.5747,-2.26687 -4.3251,-1.25734 -6.0071,-2.48626 -11.2196,-8.19745 -3.9578,-4.33647 -5.9348,-7.22334 -5.5763,-8.14263 1.076,-2.7587 0.846,-3.04206 -3.5353,-4.35551 -6.6017,-1.97913 -15.624,-8.59075 -20.5204,-15.03744 -3.3312,-4.38593 -4.7879,-7.47659 -6.3838,-13.54445 -4.6338,-17.61771 -4.4977,-17.31861 -11.9007,-26.1421 -5.3293,-6.35182 -7.6412,-8.43848 -9.3491,-8.43848 -3.20267,0 -5.62947,-2.81238 -6.35797,-7.36813 -0.5297,-3.31214 -1.3374,-4.41578 -5.3329,-7.28628 -5.8138,-4.17677 -7.7398,-7.73887 -7.7905,-14.40809 -0.1276,-16.8048 11.6294,-15.56423 25.79437,2.72176 l 2.4716,3.19051 3.145,-1.8192 c 2.1255,-1.22948 4.8712,-4.69496 8.47,-10.69051 9.9701,-16.61 17.1876,-20.59006 37.338,-20.59006 l 11.0592,0 13.4514,-5.29341 c 7.3983,-2.91137 20.0312,-10.1347 29.0546,-13.10713 0,0 11.13069,-2.49038 16.92028,-3.25211 0.63005,-0.0829 2.1611,-0.0288 2.1611,-0.0288 m -4.70458,467.56788 c 1.2315,-1.2315 2.5021,-3.6573 2.8236,-5.3906 0.3215,-1.7334 0.455,-13.7708 0.2965,-26.7498 -0.2869,-23.5025 -0.2973,-23.6079 -2.5608,-26.0156 -3.708,-3.944 -9.1103,-2.9116 -11.78,2.2512 -1.3904,2.6886 -2.1302,19.7063 -0.8567,19.7063 0.3076,0 2.4763,-1.6875 4.8195,-3.75 2.3431,-2.0625 4.844,-3.75 5.5576,-3.75 2.171,0 3.2772,4.6701 2.6013,10.982 -0.6477,6.0479 -1.0809,6.7247 -3.0464,4.7593 -0.8866,-0.8866 -1.4619,-0.6651 -2.6396,1.0163 l -1.506,2.1501 -3.1728,-3.0753 -3.1729,-3.0752 0,11.464 c 0,12.6881 0.9697,16.3806 5.1691,19.6839 3.3019,2.5973 4.7025,2.5585 7.4676,-0.2066 z m -18.9204,-1.4562 c 4.7138,-5.6021 6.6906,-24.0889 3.153,-29.4879 -2.709,-4.1345 -4.2946,-2.4499 -5.7107,6.0671 -0.3066,1.844 -1.2085,4.1643 -2.0043,5.1562 -1.333,1.6616 -1.401,1.3829 -0.864,-3.5401 l 0.5829,-5.3436 -4.7491,-2.4066 -4.7491,-2.4065 0,5.5729 c 0,7.4984 1.7272,19.4669 3.3929,23.5109 2.5674,6.2333 7.1183,7.4294 10.9484,2.8776 z m -39.6019,-1.0201 c 2.9489,-1.5782 4.3533,-5.5913 4.9115,-14.0347 0.9127,-13.8067 -1.2316,-21.746 -4.0413,-14.9627 -1.2433,3.0015 -3.5504,4.9178 -7.2502,6.022 -1.5436,0.4607 -2.1094,0.2443 -2.1094,-0.8069 0,-0.7901 -0.8437,-1.888 -1.875,-2.4399 -1.8136,-0.9707 -1.8736,-0.7186 -1.8339,7.7014 0.073,15.3619 4.7711,22.4957 12.1983,18.5208 z m 20.9721,-1.3918 c 2.6048,-2.8107 3.351,-6.0434 3.351,-14.5179 0,-12.0038 -1.8555,-14.8205 -5.333,-8.0957 -1.3887,2.6853 -1.5737,2.7727 -2.2412,1.0582 -0.4002,-1.0278 -0.5208,-3.1344 -0.2682,-4.6813 0.2527,-1.5468 0.055,-3.8672 -0.44,-5.1562 l -0.8995,-2.3438 -1.0341,2.6392 c -0.5687,1.4515 -1.034,3.93 -1.034,5.5078 0,2.6874 -0.1777,2.8331 -2.8125,2.3062 l -2.8125,-0.5625 0.01,7.7109 c 0.01,8.8323 1.2022,14.0746 3.8057,16.6781 2.583,2.583 7.0473,2.3334 9.7131,-0.543 z m -24.1008,-34.7071 c 1.3827,-2.8995 1.9019,-3.2435 4.1494,-2.7499 2.3573,0.5177 2.6213,0.285 3.2046,-2.8242 0.6974,-3.7174 -0.056,-10.0417 -1.5223,-12.7819 -1.2906,-2.4115 -6.2122,-4.799 -8.437,-4.0929 -1.0112,0.3209 -2.5303,1.9213 -3.3758,3.5564 -1.7466,3.3774 -2.7441,13.8142 -1.8009,18.8419 0.5562,2.9647 0.9625,3.3648 3.4164,3.3648 2.2653,0 3.0802,-0.6186 4.3656,-3.3142 z m 15.8851,-1.4627 c 0.8883,-2.0134 1.8776,-3.6606 2.1985,-3.6606 0.3209,0 1.2757,1.4517 2.1218,3.226 0.8462,1.7744 2.3689,3.6705 3.3839,4.2138 1.6242,0.8692 1.9844,0.5669 3.0051,-2.523 1.9221,-5.8187 1.6184,-13.7593 -0.643,-16.8144 -4.1508,-5.6076 -10.0269,-6.0679 -13.7528,-1.0775 -2.2393,2.9993 -3.1298,12.1056 -1.7005,17.389 1.2985,4.7997 3.0447,4.5556 5.387,-0.7533 z m 26.9491,0.2139 c 3.544,-5.114 4.6102,-9.5725 3.3808,-14.1382 -1.8774,-6.972 -9.0768,-8.9419 -14.1478,-3.8709 -2.8839,2.8839 -3.3751,5.9518 -2.1446,13.3951 l 0.5752,3.4794 2.7233,-1.4083 c 3.3777,-1.7467 4.1669,-1.2879 4.9482,2.8768 0.3396,1.8104 0.9628,3.2916 1.385,3.2916 0.4221,0 1.8981,-1.6315 3.2799,-3.6255 z m -62.1925,-1.7479 c 1.953,-2.2244 3.2194,-3.055 3.4775,-2.2808 0.7093,2.1281 4.7093,6.2742 5.394,5.5911 1.0563,-1.0537 1.6626,-8.7719 0.9764,-12.4296 -0.8048,-4.2899 -5.7691,-10.077 -8.3166,-9.695 -3.8771,0.5814 -5.7895,4.9221 -6.1426,13.9423 -0.2017,5.1517 0.031,8.3704 0.606,8.3704 0.5135,0 2.3159,-1.5743 4.0053,-3.4984 z m -40.1111,-1.9691 2.6101,-1.0729 -8.3472,-8.2142 c -6.78517,-6.6772 -8.61747,-9.0912 -9.79257,-12.9016 -1.8423,-5.9743 -2.8658,-15.4688 -1.6675,-15.4688 1.2919,0 4.8705,5.0308 9.3363,13.125 4.37127,7.9232 11.03117,14.5404 16.19747,16.094 2.9242,0.8793 3.9899,0.7546 7.0312,-0.8227 1.9716,-1.0226 3.7062,-2.4793 3.8547,-3.2372 0.484,-2.47 -3.3371,-6.0649 -10.3085,-9.698 -8.9059,-4.6413 -13.2917,-8.1348 -15.1628,-12.0778 -3.70467,-7.807 -0.5166,-15.2954 12.2575,-28.7909 9.9978,-10.5624 14.3088,-18.0618 12.8243,-22.3092 -0.5858,-1.6762 -1.6426,-2.5312 -3.3774,-2.7326 -2.293,-0.2663 -2.787,0.2848 -5.3786,6.0006 -2.2148,4.8845 -4.9274,8.4138 -12.1146,15.7619 -5.0934,5.2075 -9.94627,10.8254 -10.78417,12.4843 l -1.5234,3.0162 -4.3502,-2.3131 c -2.3926,-1.2721 -5.6584,-2.313 -7.2574,-2.3131 l -2.9072,0 0.2896,18.5157 c 0.2439,15.5877 0.5941,19.4561 2.215,24.4627 1.958,6.0481 6.148,11.8597 9.6316,13.3593 2.5004,1.0763 13.36577,0.5126 16.72377,-0.8676 z m 88.7927,-40.3395 c -0.01,-6.4466 -4.7227,-11.3805 -10.8783,-11.3805 -2.226,0 -2.1688,0.1459 1.3825,3.5241 2.6521,2.5229 3.8772,4.5871 4.3122,7.2656 0.3342,2.0579 0.8299,4.7962 1.1015,6.0853 l 0.4938,2.3438 1.7959,-2.2133 c 1.0375,-1.2785 1.7944,-3.6541 1.7924,-5.625 z m -56.2458,-3.1774 c 0,-2.5053 -3.1019,-16.6406 -3.6535,-16.6406 -1.3844,0 -6.6597,10.2526 -6.6597,12.9431 0,1.2946 1.2213,2.191 4.4531,3.2687 5.5435,1.8486 5.8592,1.8717 5.8601,0.4288 z m 66.5288,-0.6415 c 2.7943,-5.2211 -0.38,-11.5307 -6.6504,-13.2191 -6.3328,-1.7053 -7.4306,-0.7612 -2.779,2.39 4.6912,3.178 5.3872,4.207 6.1732,9.1269 0.6194,3.8767 1.7704,4.4785 3.2562,1.7022 z m -80.2317,-12.5319 c 1.2416,-2.1648 2.5407,-4.8852 2.8868,-6.0453 0.5284,-1.7712 0.273,-2.1094 -1.593,-2.1094 -2.0223,0 -10.0916,5.0541 -10.0916,6.3207 0,1.3338 4.9036,6.7814 5.675,6.3047 0.4759,-0.2942 1.8811,-2.306 3.1228,-4.4707 z m 90.0081,1.6124 c 2.481,-6.4652 -1.9654,-13.5289 -8.4994,-13.5027 -1.9733,0.01 -4.1986,0.4007 -4.9451,0.8731 -1.0931,0.6915 -0.9106,1.0329 0.9375,1.7538 1.2622,0.4923 3.4337,1.3463 4.8256,1.8977 1.8738,0.7424 2.8111,2.0479 3.6106,5.0287 0.594,2.2143 1.273,4.3425 1.509,4.7292 0.7143,1.1706 1.9588,0.7918 2.5618,-0.7798 z m 7.1264,-14.8682 c -0.016,-2.9862 -2.2092,-8.1553 -3.9898,-9.4025 -2.2316,-1.563 -7.8893,-1.8941 -9.9598,-0.5828 -1.0415,0.6596 -0.9145,1.0279 0.6415,1.8606 1.067,0.5711 2.8431,1.0383 3.9468,1.0383 1.5613,0 2.5534,1.2668 4.4686,5.7054 2.2075,5.1162 2.5875,5.5333 3.6798,4.0396 0.67,-0.9162 1.2157,-2.1126 1.2129,-2.6586 z m -181.37907,-5.5965 c 4.6084,-1.4055 12.5671,-7.4946 11.3658,-8.6959 -0.3337,-0.3337 -3.1681,0.7142 -6.2986,2.3288 -3.1306,1.6145 -5.5393,2.4232 -5.3527,1.797 0.1865,-0.6262 2.6425,-2.2717 5.4576,-3.6567 6.1913,-3.046 6.1931,-2.693 -0.092,-17.92182 -5.1721,-12.53174 -6.0484,-16.09498 -5.1437,-20.91707 0.7951,-4.23834 7.5021,-11.61245 12.6895,-13.95164 l 3.7585,-1.69484 0,-8.63254 0,-8.63255 -15.2749,-0.46333 c -18.0512,-0.54753 -19.4126,-1.01425 -19.4126,-6.65495 0,-2.18744 -0.6483,-4.90268 -1.4406,-6.03387 -2.0515,-2.92901 -8.3116,-4.45015 -12.7909,-3.1081 -3.085,0.92426 -3.6425,1.54912 -4.4716,5.01114 -1.1629,4.85582 -2.8554,9.67581 -6.0587,17.25393 -4.5753,10.82368 -5.5411,23.40933 -2.8135,36.6627 1.8708,9.09027 4.2869,14.91491 9.492,22.88324 4.7663,7.2965 9.5267,11.3647 16.9785,14.5097 5.9217,2.4992 11.0124,2.4773 19.408,-0.083 z m 132.70617,-4.0228 c 0.9992,-2.6281 1.1331,-11.1911 0.2732,-17.46519 l -0.5925,-4.3223 -5.2669,0.49702 c -2.8968,0.27337 -8.431,0.80508 -12.2982,1.18159 l -7.0312,0.68456 3.93,2.06371 c 4.9623,2.60571 8.6754,7.42531 9.3005,12.07201 0.9998,7.4317 1.1383,7.6865 4.3506,8.0038 4.5951,0.4539 6.381,-0.2073 7.3345,-2.7152 z m -176.55797,-2.6573 c 2.576,-1.8043 4.7637,-8.4697 3.2701,-9.9633 -0.7493,-0.7493 -1.4117,-0.1189 -2.4262,2.3091 -1.0936,2.6174 -2.1723,3.5556 -4.986,4.3369 -1.9748,0.5484 -4.1833,0.9994 -4.9077,1.0023 -1.0057,0 -0.9159,0.4487 0.3797,1.8802 2.0233,2.2358 5.8266,2.4265 8.6701,0.4348 z m 231.79857,-2.8251 c 0,-8.1308 -9.3622,-13.49561 -15.3423,-8.7917 -3.5725,2.8102 -3.0797,3.5144 2.3478,3.3549 3.7941,-0.1115 5.0394,0.2286 5.8594,1.6005 3.826,6.4009 7.1351,8.1801 7.1351,3.8363 z m -25.3125,-9.6565 c 0,-5.91478 0.2883,-6.77979 4.5907,-13.7728 7.1583,-11.63493 9.6298,-14.08062 16.5598,-16.38679 l 6.037,-2.00898 0,-3.67356 c 0,-3.52377 -0.1242,-3.67273 -3.0469,-3.65298 -6.3092,0.0426 -15.0936,5.36188 -19.5489,11.83746 -5.677,8.25119 -9.3928,23.88188 -7.4195,31.21025 1.4835,5.509 2.8278,3.8201 2.8278,-3.5526 z M 211.42265,488.7927 c -3.15,-11.02054 -3.6116,-18.98362 -1.2923,-22.29488 0.8268,-1.18046 3.8446,-3.27824 6.7062,-4.66173 5.8477,-2.82718 7.8641,-5.09806 6.0964,-6.86579 -2.5762,-2.57622 -14.5972,3.44152 -18.0568,9.03932 -2.6143,4.23009 -2.3644,9.50864 0.9136,19.29276 2.5707,7.67305 7.138,16.56133 8.0443,15.65503 0.2113,-0.2113 -0.8739,-4.78539 -2.4114,-10.16471 z m 177.20437,3.77911 c 0,-3.09662 -2.4508,-8.04771 -4.7971,-9.69112 -2.932,-2.0537 -7.2025,-1.92215 -10.906,0.33595 -4.4575,2.71776 -3.7772,3.76028 2.4535,3.76028 5.3786,0 5.5554,0.0831 7.9821,3.75 2.6691,4.03326 5.2675,4.94329 5.2675,1.84489 z m -55.8713,-8.38437 c 12.1144,-3.09833 22.761,-9.80805 28.8076,-18.15522 3.6427,-5.02864 3.6151,-6.77 -0.077,-4.86064 -1.5851,0.81968 -5.1874,1.43033 -8.4375,1.43033 -5.3802,0 -5.6716,0.11697 -5.6716,2.27678 0,2.52314 -2.2155,5.22323 -4.2857,5.22323 -0.9375,0 -1.3393,-1.125 -1.3393,-3.75001 l 0,-3.75 -4.6875,0 -4.6875,0 0,6.45322 c 0,6.13894 -0.1141,6.47503 -2.3437,6.90124 -2.1488,0.41076 -2.3447,0.1663 -2.3541,-2.93758 -0.01,-1.86209 -0.2718,-4.96765 -0.5914,-6.90126 -0.5682,-3.4374 -0.6723,-3.51562 -4.6772,-3.51562 l -4.0961,0 0,7.50001 c 0,7.26001 -0.071,7.5 -2.2163,7.5 -1.926,0 -2.2944,-0.56984 -2.8125,-4.3496 -0.3279,-2.39228 -0.5962,-5.76728 -0.5962,-7.50001 0,-3.1088 -0.056,-3.1504 -4.2187,-3.1504 l -4.2188,0 -0.014,4.92188 c -0.018,6.06522 -1.1083,8.16811 -3.4746,6.69984 -1.2126,-0.75239 -1.744,-2.47826 -1.9485,-6.32813 l -0.2812,-5.29359 -4.5583,0 -4.5583,0 -0.6335,3.75 c -0.9291,5.49902 -4.5214,4.79123 -4.6388,-0.91399 -0.044,-2.15981 -0.4491,-2.39271 -4.6176,-2.65773 l -4.5688,-0.29046 0.6068,2.63421 c 1.4383,6.24405 15.7501,16.26597 27.7496,19.43174 7.6072,2.00697 20.7994,1.84197 29.4412,-0.36823 z m -48.1912,-30.80936 c 0,-4.04186 -0.278,-16.27623 -0.6178,-27.1875 l -0.6179,-19.83866 -4.0696,0 -4.0697,0 0,27.1875 0,27.1875 4.6875,0 4.6875,0 z m 12.5796,6.77979 c 1.304,-0.50041 1.4829,-3.7798 1.4829,-27.1875 l 0,-26.61845 -4.6875,0 -4.6875,0 0,27.1875 0,27.1875 3.2046,0 c 1.7625,0 3.8719,-0.25607 4.6875,-0.56905 z m 15.5454,-26.61845 0,-27.1875 -4.2187,0 -4.2188,0 0,27.1875 0,27.1875 4.2188,0 4.2187,0 z m 15,0 0,-27.1875 -4.6875,0 -4.6875,0 0,26.5625 c 0,14.60938 0.2813,26.84375 0.625,27.1875 0.3437,0.34375 2.4531,0.625 4.6875,0.625 l 4.0625,0 z m 14.0625,0 0,-27.1875 -4.6875,0 -4.6875,0 0,27.1875 0,27.1875 4.6875,0 4.6875,0 z m 15,0.44865 0,-26.73885 -2.2746,-1.03638 c -1.2511,-0.57002 -3.3604,-0.76387 -4.6875,-0.43079 l -2.4129,0.60559 0,27.16964 0,27.16964 4.6875,0 4.6875,0 z M 187.61735,423.92999 c -1.3276,-6.76902 -1.6854,-27.74754 -0.611,-35.82096 1.8166,-13.65081 5.0489,-18.89914 13.3346,-21.6512 2.4949,-0.82865 4.5361,-1.86468 4.5361,-2.30228 0,-1.17347 -9.5431,-3.74118 -13.9044,-3.74118 -2.9593,0 -4.1911,0.53275 -5.717,2.47268 -4.8887,6.21499 -6.7053,20.35752 -4.442,34.58227 0.8184,5.14322 1.7623,12.51536 2.0977,16.38255 0.6543,7.54538 2.4448,13.125 4.2118,13.125 0.7293,0 0.8933,-1.01156 0.4942,-3.04688 z m 182.77917,-12.06976 c -6.5545,-20.03908 -30.8428,-37.4816 -52.5507,-37.73902 -18.2323,-0.2162 -37.0507,9.52275 -46.8094,24.22488 -3.4091,5.13602 -6.6451,12.69328 -5.4352,12.69328 0.3526,0 2.2199,-1.72729 4.1497,-3.83842 3.434,-3.75673 3.6239,-3.83154 8.9267,-3.51562 l 5.4182,0.32279 0,-4.17948 c 0,-3.51701 0.3714,-4.36735 2.3437,-5.3648 2.3387,-1.18281 2.3444,-1.1749 2.6318,3.71071 0.1585,2.69284 0.6174,5.2284 1.0198,5.63459 0.4024,0.4062 2.5214,0.45235 4.7088,0.10257 l 3.9771,-0.63596 -0.2634,-7.62158 c -0.2961,-8.56613 0.1769,-9.9273 3.45,-9.9273 2.2745,0 2.2884,0.0574 2.2884,9.42637 l 0,9.42636 4.4531,-0.28574 4.4532,-0.28574 -0.3293,-6.72287 c -0.1811,-3.69757 -0.034,-8.46762 0.3257,-10.6001 0.5535,-3.2756 0.9682,-3.83261 2.6731,-3.58964 1.9117,0.27247 2.0319,0.84749 2.2839,10.92268 0.2287,9.14904 0.4687,10.55727 1.7173,10.07813 0.7982,-0.30632 2.8934,-0.55695 4.6559,-0.55695 l 3.2046,0 0,-9.76268 0,-9.76266 2.5781,0.69228 2.5782,0.69228 0,9.30476 0,9.30477 4.4531,0.28574 4.4531,0.28574 0,-7.08261 c 0,-3.89544 0.328,-7.08262 0.7289,-7.08262 0.4009,0 1.6665,0.65674 2.8125,1.45941 1.7429,1.22074 2.0836,2.34206 2.0836,6.85669 l 0,5.39729 5.6584,-0.40929 c 6.516,-0.47132 7.0858,-0.11756 13.7735,8.55011 2.3119,2.99638 4.4238,5.22761 4.6931,4.9583 0.2693,-0.26932 -0.2282,-2.68431 -1.1055,-5.36665 z m -203.18977,-6.21149 c 0.5471,-1.41796 1.2795,-4.8574 1.6277,-7.64319 0.3481,-2.78578 1.2465,-6.53353 1.9964,-8.32833 1.2297,-2.94312 1.2173,-3.20718 -0.1263,-2.69157 -1.9992,0.76718 -12.7025,8.06187 -12.7025,8.65725 0,0.6713 3.7614,7.96798 5.3996,10.47459 1.8029,2.75865 2.5977,2.66072 3.8051,-0.46875 z m 69.6618,-11.70212 c 1.4399,-2.69045 -0.2854,-4.18339 -3.2655,-2.82561 -2.099,0.95637 -2.6782,0.54639 -8.0234,-5.67956 -4.3877,-5.11068 -6.2057,-8.14995 -7.6263,-12.74923 -2.0046,-6.49006 -3.2322,-8.52785 -5.1374,-8.52785 -0.9208,0 -0.7812,1.3876 0.5897,5.85937 0.988,3.22266 2.2255,7.62937 2.75,9.7927 0.6333,2.61197 2.5948,5.72892 5.8387,9.27837 6.9823,7.63969 12.431,9.41701 14.8742,4.85181 z m -29.179,-38.96028 c 0,-3.20147 -2.8095,-12.44095 -5.2437,-17.24459 -3.1612,-6.23832 -10.9561,-14.45915 -14.9644,-15.78199 -9.5681,-3.15775 -10.3507,9.03172 -1.6906,26.33114 l 4.1918,8.37347 8.8534,0 c 7.8821,0 8.8535,-0.18412 8.8535,-1.67803 z m 170.21667,-40.04072 c 1.1329,-2.71152 1.8571,-3.28125 4.1709,-3.28125 2.4535,0 2.7999,-0.33068 2.7999,-2.67287 0,-1.47007 1.0547,-4.65647 2.3438,-7.08086 2.0646,-3.88314 3.24,-10.87126 1.8284,-10.87126 -1.0818,0 -6.5476,3.12198 -7.2047,4.11518 -0.3788,0.57259 -0.6953,2.38726 -0.7031,4.03261 -0.018,3.77086 -0.9868,4.35214 -5.9082,3.54526 -3.2899,-0.53939 -5.1641,-1.85532 -11.2156,-7.87488 -6.2735,-6.24045 -7.2627,-7.66656 -7.2444,-10.44459 0.012,-1.76953 -1.3418,-15.71512 -3.0077,-30.99021 l -3.0289,-27.77287 -3.0396,-1.09915 c -3.497,-1.26451 -6.256,-4.38978 -9.973,-11.29672 -2.282,-4.24063 -3.3751,-5.20972 -8.4375,-7.48063 -7.6281,-3.42188 -14.9222,-5.08099 -18.9861,-4.31859 -3.16,0.59281 -9.7984,5.45843 -9.7984,7.18171 0,0.46221 2.5105,0.84038 5.5789,0.84038 7.4073,0 14.28,1.54994 18.0587,4.07268 1.6946,1.13135 4.9807,4.92687 7.3023,8.43448 2.3217,3.50761 4.9533,6.78711 5.8479,7.28781 0.8947,0.50068 2.0342,1.67175 2.5323,2.60235 0.498,0.93062 2.1931,14.30708 3.7669,29.72548 3.783,37.06123 3.2127,34.21801 7.3471,36.62944 1.9097,1.11382 8.3237,6.05622 14.2534,10.98311 5.9297,4.9269 10.9082,8.97074 11.0635,8.98632 0.1552,0.0156 0.8991,-1.44824 1.6532,-3.25293 z"
       id="path4272-3" />
  </g>
</svg>
